<svg width="43" height="42" viewBox="0 0 43 42" fill="none" xmlns="http://www.w3.org/2000/svg">
<g clip-path="url(#clip0_279_249)">
<g filter="url(#filter0_d_279_249)">
<rect width="42" height="21" transform="translate(0.950195 0.000488281)" fill="url(#paint0_linear_279_249)"/>
</g>
<path d="M14.5996 5.25H12.8496C11.9214 5.25 11.0311 5.61875 10.3747 6.27513C9.71836 6.9315 9.34961 7.82174 9.34961 8.75V17.5C9.34961 18.4283 8.98086 19.3185 8.32448 19.9749C7.66811 20.6313 6.77787 21 5.84961 21C6.77787 21 7.66811 21.3687 8.32448 22.0251C8.98086 22.6815 9.34961 23.5717 9.34961 24.5V33.25C9.34961 35.175 10.9246 36.75 12.8496 36.75H14.5996M28.5996 36.75H30.3496C31.2779 36.75 32.1681 36.3813 32.8245 35.7249C33.4809 35.0685 33.8496 34.1783 33.8496 33.25V24.5C33.8496 22.575 35.4246 21 37.3496 21C36.4214 21 35.5311 20.6313 34.8747 19.9749C34.2184 19.3185 33.8496 18.4283 33.8496 17.5V8.75C33.8496 7.82174 33.4809 6.9315 32.8245 6.27513C32.1681 5.61875 31.2779 5.25 30.3496 5.25H28.5996" stroke="url(#paint1_linear_279_249)" stroke-width="1.75" stroke-linecap="round" stroke-linejoin="round"/>
</g>
<defs>
<filter id="filter0_d_279_249" x="-34.0498" y="-17.4995" width="112" height="91" filterUnits="userSpaceOnUse" color-interpolation-filters="sRGB">
<feFlood flood-opacity="0" result="BackgroundImageFix"/>
<feColorMatrix in="SourceAlpha" type="matrix" values="0 0 0 0 0 0 0 0 0 0 0 0 0 0 0 0 0 0 127 0" result="hardAlpha"/>
<feOffset dy="17.5"/>
<feGaussianBlur stdDeviation="17.5"/>
<feComposite in2="hardAlpha" operator="out"/>
<feColorMatrix type="matrix" values="0 0 0 0 0.407843 0 0 0 0 0 0 0 0 0 0.972549 0 0 0 0.16 0"/>
<feBlend mode="normal" in2="BackgroundImageFix" result="effect1_dropShadow_279_249"/>
<feBlend mode="normal" in="SourceGraphic" in2="effect1_dropShadow_279_249" result="shape"/>
</filter>
<linearGradient id="paint0_linear_279_249" x1="-3.22991" y1="-2.45312" x2="45.868" y2="23.1821" gradientUnits="userSpaceOnUse">
<stop stop-color="#B284F1"/>
<stop offset="1" stop-color="#6800F8"/>
</linearGradient>
<linearGradient id="paint1_linear_279_249" x1="21.5996" y1="5.25" x2="21.5996" y2="36.75" gradientUnits="userSpaceOnUse">
<stop offset="0.46" stop-color="white"/>
<stop offset="0.46" stop-color="#FF3805"/>
</linearGradient>
<clipPath id="clip0_279_249">
<rect width="42" height="42" fill="white" transform="translate(0.599609)"/>
</clipPath>
</defs>
</svg>
