<svg width="25" height="25" viewBox="0 0 25 25" fill="none" xmlns="http://www.w3.org/2000/svg">
<path d="M17.7451 7.04395H17.7551M7.24512 2.54395H17.2451C20.0065 2.54395 22.2451 4.78252 22.2451 7.54395V17.5439C22.2451 20.3054 20.0065 22.5439 17.2451 22.5439H7.24512C4.48369 22.5439 2.24512 20.3054 2.24512 17.5439V7.54395C2.24512 4.78252 4.48369 2.54395 7.24512 2.54395ZM16.2451 11.9139C16.3685 12.7462 16.2264 13.5962 15.8389 14.343C15.4514 15.0898 14.8383 15.6954 14.0867 16.0736C13.3352 16.4519 12.4836 16.5835 11.6529 16.4499C10.8222 16.3162 10.0549 15.924 9.45996 15.3291C8.86503 14.7342 8.47285 13.9668 8.33918 13.1362C8.20552 12.3055 8.33718 11.4538 8.71544 10.7023C9.0937 9.9508 9.6993 9.33769 10.4461 8.95019C11.1929 8.56269 12.0429 8.42053 12.8751 8.54395C13.724 8.66983 14.51 9.06541 15.1168 9.67225C15.7237 10.2791 16.1192 11.065 16.2451 11.9139Z" stroke="#FF3805" stroke-linecap="round" stroke-linejoin="round"/>
</svg>
