<svg width="32" height="32" viewBox="0 0 32 32" fill="none" xmlns="http://www.w3.org/2000/svg">
<g clip-path="url(#clip0_316_883)">
<g filter="url(#filter0_d_316_883)">
<rect width="32" height="16" transform="translate(0.53125)" fill="url(#paint0_linear_316_883)"/>
</g>
<path d="M13.3336 17.333C13.9062 18.0985 14.6367 18.7319 15.4757 19.1902C16.3146 19.6486 17.2423 19.9211 18.1958 19.9894C19.1493 20.0577 20.1064 19.9201 21.0021 19.586C21.8977 19.2519 22.7111 18.7291 23.3869 18.053L27.3869 14.053C28.6013 12.7956 29.2733 11.1116 29.2581 9.36362C29.2429 7.61564 28.5418 5.94356 27.3057 4.7075C26.0697 3.47145 24.3976 2.77032 22.6496 2.75513C20.9016 2.73995 19.2176 3.41191 17.9603 4.6263L15.6669 6.90629M18.6669 14.6663C18.0943 13.9008 17.3638 13.2674 16.5249 12.809C15.6859 12.3507 14.7583 12.0781 13.8047 12.0099C12.8512 11.9416 11.8942 12.0791 10.9985 12.4133C10.1028 12.7474 9.28945 13.2702 8.6136 13.9463L4.6136 17.9463C3.39921 19.2036 2.72725 20.8877 2.74244 22.6356C2.75763 24.3836 3.45876 26.0557 4.69481 27.2918C5.93086 28.5278 7.60295 29.2289 9.35093 29.2441C11.0989 29.2593 12.7829 28.5874 14.0403 27.373L16.3203 25.093" stroke="url(#paint1_linear_316_883)" stroke-width="1.33333" stroke-linecap="round" stroke-linejoin="round"/>
</g>
<defs>
<filter id="filter0_d_316_883" x="-26.1354" y="-13.3333" width="85.3333" height="69.3333" filterUnits="userSpaceOnUse" color-interpolation-filters="sRGB">
<feFlood flood-opacity="0" result="BackgroundImageFix"/>
<feColorMatrix in="SourceAlpha" type="matrix" values="0 0 0 0 0 0 0 0 0 0 0 0 0 0 0 0 0 0 127 0" result="hardAlpha"/>
<feOffset dy="13.3333"/>
<feGaussianBlur stdDeviation="13.3333"/>
<feComposite in2="hardAlpha" operator="out"/>
<feColorMatrix type="matrix" values="0 0 0 0 0.407843 0 0 0 0 0 0 0 0 0 0.972549 0 0 0 0.16 0"/>
<feBlend mode="normal" in2="BackgroundImageFix" result="effect1_dropShadow_316_883"/>
<feBlend mode="normal" in="SourceGraphic" in2="effect1_dropShadow_316_883" result="shape"/>
</filter>
<linearGradient id="paint0_linear_316_883" x1="-2.46089" y1="-1.86904" x2="34.9471" y2="17.6625" gradientUnits="userSpaceOnUse">
<stop stop-color="#B284F1"/>
<stop offset="1" stop-color="#6800F8"/>
</linearGradient>
<linearGradient id="paint1_linear_316_883" x1="16.0003" y1="2.75488" x2="16.0003" y2="29.2444" gradientUnits="userSpaceOnUse">
<stop offset="0.46" stop-color="white"/>
<stop offset="0.46" stop-color="#FF3805"/>
</linearGradient>
<clipPath id="clip0_316_883">
<rect width="32" height="32" fill="white"/>
</clipPath>
</defs>
</svg>
