<svg width="25" height="25" viewBox="0 0 25 25" fill="none" xmlns="http://www.w3.org/2000/svg">
<path d="M16.2451 8.54395C17.8364 8.54395 19.3625 9.17609 20.4878 10.3013C21.613 11.4265 22.2451 12.9526 22.2451 14.5439V21.5439H18.2451V14.5439C18.2451 14.0135 18.0344 13.5048 17.6593 13.1297C17.2843 12.7547 16.7756 12.5439 16.2451 12.5439C15.7147 12.5439 15.206 12.7547 14.8309 13.1297C14.4558 13.5048 14.2451 14.0135 14.2451 14.5439V21.5439H10.2451V14.5439C10.2451 12.9526 10.8773 11.4265 12.0025 10.3013C13.1277 9.17609 14.6538 8.54395 16.2451 8.54395Z" stroke="#FF3805" stroke-linecap="round" stroke-linejoin="round"/>
<path d="M6.24512 9.54395H2.24512V21.5439H6.24512V9.54395Z" stroke="#FF3805" stroke-linecap="round" stroke-linejoin="round"/>
<path d="M4.24512 6.54395C5.34969 6.54395 6.24512 5.64851 6.24512 4.54395C6.24512 3.43938 5.34969 2.54395 4.24512 2.54395C3.14055 2.54395 2.24512 3.43938 2.24512 4.54395C2.24512 5.64851 3.14055 6.54395 4.24512 6.54395Z" stroke="#FF3805" stroke-linecap="round" stroke-linejoin="round"/>
</svg>
