<svg width="43" height="42" viewBox="0 0 43 42" fill="none" xmlns="http://www.w3.org/2000/svg">
<g clip-path="url(#clip0_268_3561)">
<g filter="url(#filter0_d_268_3561)">
<rect width="42" height="21" transform="translate(0.599609 0.000244141)" fill="url(#paint0_linear_268_3561)"/>
</g>
<path d="M21.5996 26.2499L16.3496 20.9999M21.5996 26.2499C24.0441 25.3202 26.3892 24.1477 28.5996 22.7499M21.5996 26.2499V34.9999C21.5996 34.9999 26.9021 34.0374 28.5996 31.4999C30.4896 28.6649 28.5996 22.7499 28.5996 22.7499M16.3496 20.9999C17.2809 18.5839 18.4535 16.2681 19.8496 14.0874C21.8887 10.8272 24.7279 8.14278 28.0974 6.28961C31.4668 4.43643 35.2543 3.47609 39.0996 3.49995C39.0996 8.25995 37.7346 16.6249 28.5996 22.7499M16.3496 20.9999H7.59961C7.59961 20.9999 8.56211 15.6974 11.0996 13.9999C13.9346 12.1099 19.8496 13.9999 19.8496 13.9999M8.47461 28.8749C5.84961 31.0799 4.97461 37.6249 4.97461 37.6249C4.97461 37.6249 11.5196 36.7499 13.7246 34.1249C14.9671 32.6549 14.9496 30.3974 13.5671 29.0324C12.8869 28.3832 11.9909 28.0081 11.051 27.979C10.1111 27.9499 9.19364 28.269 8.47461 28.8749Z" stroke="url(#paint1_linear_268_3561)" stroke-width="1.75" stroke-linecap="round" stroke-linejoin="round"/>
</g>
<defs>
<filter id="filter0_d_268_3561" x="-19.4004" y="-9.99976" width="82" height="61" filterUnits="userSpaceOnUse" color-interpolation-filters="sRGB">
<feFlood flood-opacity="0" result="BackgroundImageFix"/>
<feColorMatrix in="SourceAlpha" type="matrix" values="0 0 0 0 0 0 0 0 0 0 0 0 0 0 0 0 0 0 127 0" result="hardAlpha"/>
<feOffset dy="10"/>
<feGaussianBlur stdDeviation="10"/>
<feComposite in2="hardAlpha" operator="out"/>
<feColorMatrix type="matrix" values="0 0 0 0 0.407843 0 0 0 0 0 0 0 0 0 0.972549 0 0 0 0.16 0"/>
<feBlend mode="normal" in2="BackgroundImageFix" result="effect1_dropShadow_268_3561"/>
<feBlend mode="normal" in="SourceGraphic" in2="effect1_dropShadow_268_3561" result="shape"/>
</filter>
<linearGradient id="paint0_linear_268_3561" x1="-3.22991" y1="-2.45312" x2="45.868" y2="23.1821" gradientUnits="userSpaceOnUse">
<stop stop-color="#B284F1"/>
<stop offset="1" stop-color="#6800F8"/>
</linearGradient>
<linearGradient id="paint1_linear_268_3561" x1="22.0371" y1="3.49951" x2="22.0371" y2="37.6249" gradientUnits="userSpaceOnUse">
<stop offset="0.46" stop-color="white"/>
<stop offset="0.46" stop-color="#FF3805"/>
</linearGradient>
<clipPath id="clip0_268_3561">
<rect width="42" height="42" fill="white" transform="translate(0.599609)"/>
</clipPath>
</defs>
</svg>
