<svg width="33" height="32" viewBox="0 0 33 32" fill="none" xmlns="http://www.w3.org/2000/svg">
<g clip-path="url(#clip0_316_745)">
<g filter="url(#filter0_d_316_745)">
<rect width="32" height="16" transform="translate(0.931641)" fill="url(#paint0_linear_316_745)"/>
</g>
<path d="M7.06706 5.33366C7.06706 4.62641 7.34801 3.94814 7.84811 3.44804C8.3482 2.94794 9.02648 2.66699 9.73372 2.66699H25.7337C26.441 2.66699 27.1192 2.94794 27.6193 3.44804C28.1194 3.94814 28.4004 4.62641 28.4004 5.33366V26.667C28.4004 27.3742 28.1194 28.0525 27.6193 28.5526C27.1192 29.0527 26.441 29.3337 25.7337 29.3337H22.5337M11.0671 24.0003H11.0804M7.06706 10.667H15.0671C16.5398 10.667 17.7337 11.8609 17.7337 13.3337V26.667C17.7337 28.1397 16.5398 29.3337 15.0671 29.3337H7.06706C5.5943 29.3337 4.40039 28.1397 4.40039 26.667V13.3337C4.40039 11.8609 5.5943 10.667 7.06706 10.667Z" stroke="url(#paint1_linear_316_745)" stroke-width="1.33333" stroke-linecap="round" stroke-linejoin="round"/>
</g>
<defs>
<filter id="filter0_d_316_745" x="-25.735" y="-13.3333" width="85.3333" height="69.3333" filterUnits="userSpaceOnUse" color-interpolation-filters="sRGB">
<feFlood flood-opacity="0" result="BackgroundImageFix"/>
<feColorMatrix in="SourceAlpha" type="matrix" values="0 0 0 0 0 0 0 0 0 0 0 0 0 0 0 0 0 0 127 0" result="hardAlpha"/>
<feOffset dy="13.3333"/>
<feGaussianBlur stdDeviation="13.3333"/>
<feComposite in2="hardAlpha" operator="out"/>
<feColorMatrix type="matrix" values="0 0 0 0 0.407843 0 0 0 0 0 0 0 0 0 0.972549 0 0 0 0.16 0"/>
<feBlend mode="normal" in2="BackgroundImageFix" result="effect1_dropShadow_316_745"/>
<feBlend mode="normal" in="SourceGraphic" in2="effect1_dropShadow_316_745" result="shape"/>
</filter>
<linearGradient id="paint0_linear_316_745" x1="-2.46089" y1="-1.86904" x2="34.9471" y2="17.6625" gradientUnits="userSpaceOnUse">
<stop stop-color="#B284F1"/>
<stop offset="1" stop-color="#6800F8"/>
</linearGradient>
<linearGradient id="paint1_linear_316_745" x1="16.4004" y1="2.66699" x2="16.4004" y2="29.3337" gradientUnits="userSpaceOnUse">
<stop offset="0.46" stop-color="white"/>
<stop offset="0.46" stop-color="#FF3805"/>
</linearGradient>
<clipPath id="clip0_316_745">
<rect width="32" height="32" fill="white" transform="translate(0.400391)"/>
</clipPath>
</defs>
</svg>
