<svg width="32" height="32" viewBox="0 0 32 32" fill="none" xmlns="http://www.w3.org/2000/svg">
<g clip-path="url(#clip0_316_863)">
<g filter="url(#filter0_d_316_863)">
<rect width="32" height="16" transform="translate(0.53125)" fill="url(#paint0_linear_316_863)"/>
</g>
<path d="M9.33333 14.6667V20C9.33333 20.7072 9.61428 21.3855 10.1144 21.8856C10.6145 22.3857 11.2928 22.6667 12 22.6667H17.3333M6.66667 4H12C13.4728 4 14.6667 5.19391 14.6667 6.66667V12C14.6667 13.4728 13.4728 14.6667 12 14.6667H6.66667C5.19391 14.6667 4 13.4728 4 12V6.66667C4 5.19391 5.19391 4 6.66667 4ZM20 17.3333H25.3333C26.8061 17.3333 28 18.5272 28 20V25.3333C28 26.8061 26.8061 28 25.3333 28H20C18.5272 28 17.3333 26.8061 17.3333 25.3333V20C17.3333 18.5272 18.5272 17.3333 20 17.3333Z" stroke="url(#paint1_linear_316_863)" stroke-width="1.33333" stroke-linecap="round" stroke-linejoin="round"/>
</g>
<defs>
<filter id="filter0_d_316_863" x="-26.1354" y="-13.3333" width="85.3333" height="69.3333" filterUnits="userSpaceOnUse" color-interpolation-filters="sRGB">
<feFlood flood-opacity="0" result="BackgroundImageFix"/>
<feColorMatrix in="SourceAlpha" type="matrix" values="0 0 0 0 0 0 0 0 0 0 0 0 0 0 0 0 0 0 127 0" result="hardAlpha"/>
<feOffset dy="13.3333"/>
<feGaussianBlur stdDeviation="13.3333"/>
<feComposite in2="hardAlpha" operator="out"/>
<feColorMatrix type="matrix" values="0 0 0 0 0.407843 0 0 0 0 0 0 0 0 0 0.972549 0 0 0 0.16 0"/>
<feBlend mode="normal" in2="BackgroundImageFix" result="effect1_dropShadow_316_863"/>
<feBlend mode="normal" in="SourceGraphic" in2="effect1_dropShadow_316_863" result="shape"/>
</filter>
<linearGradient id="paint0_linear_316_863" x1="-2.46089" y1="-1.86904" x2="34.9471" y2="17.6625" gradientUnits="userSpaceOnUse">
<stop stop-color="#B284F1"/>
<stop offset="1" stop-color="#6800F8"/>
</linearGradient>
<linearGradient id="paint1_linear_316_863" x1="16" y1="4" x2="16" y2="28" gradientUnits="userSpaceOnUse">
<stop offset="0.46" stop-color="white"/>
<stop offset="0.46" stop-color="#FF3805"/>
</linearGradient>
<clipPath id="clip0_316_863">
<rect width="32" height="32" fill="white"/>
</clipPath>
</defs>
</svg>
