<svg width="166" height="164" viewBox="0 0 166 164" fill="none" xmlns="http://www.w3.org/2000/svg">
<circle cx="83" cy="82" r="82" fill="white"/>
<mask id="mask0_493_111" style="mask-type:luminance" maskUnits="userSpaceOnUse" x="0" y="7" width="99" height="152">
<path d="M44.7412 151.56C43.5437 149.389 42.5484 147.115 41.7557 144.737C39.1875 137.042 44.7339 128.996 52.8073 128.204L52.8412 128.201C58.5765 127.639 64.1891 130.885 66.0755 136.329C66.8084 138.444 67.8297 140.301 69.1391 141.9C72.1109 145.536 76.2364 147.349 81.5229 147.349C86.6401 147.349 90.726 145.864 93.7828 142.891C96.8375 139.918 98.3667 135.876 98.3667 130.754C98.3667 125.144 96.7568 119.775 93.5364 114.656C90.3167 109.539 83.914 102.439 74.3407 93.3543C61.4615 81.1371 52.6677 70.9824 47.9615 62.8876C43.2557 54.7996 40.9031 45.9652 40.9031 36.3866C40.9031 24.2972 43.9932 14.5399 50.0937 7.05859C20.6417 19.6573 0 48.8909 0 82.9507C0 116.901 20.5088 146.051 49.8073 158.716C47.8839 156.559 46.186 154.181 44.7412 151.56Z" fill="white"/>
</mask>
<g mask="url(#mask0_493_111)">
<path d="M46 154.5C44.8025 152.329 42.5484 147.115 41.7557 144.737C39.1875 137.042 44.7339 128.996 52.8073 128.204L52.8412 128.201C58.5765 127.639 64.1891 130.885 66.0755 136.329C66.8084 138.444 67.8297 140.301 69.1391 141.9C72.1109 145.536 76.2364 147.349 81.5229 147.349C86.6401 147.349 90.726 145.864 93.7828 142.891C96.8375 139.918 98.3667 135.876 98.3667 130.754C98.3667 125.144 96.7568 119.775 93.5364 114.656C90.3167 109.539 83.914 102.439 74.3407 93.3543C61.4615 81.1371 52.6677 70.9825 47.9615 62.8877C43.2557 54.7997 40.9031 45.9653 40.9031 36.3866C40.9031 24.2973 43.9932 14.5399 50.0937 7.05859C20.6417 19.6573 -15.5 21.7893 -15.5 55.8491C-15.5 89.7997 17.2015 142.835 46.5 155.5C44.5765 153.343 47.4448 157.121 46 154.5Z" fill="url(#paint0_linear_493_111)"/>
</g>
<mask id="mask1_493_111" style="mask-type:luminance" maskUnits="userSpaceOnUse" x="66" y="5" width="100" height="155">
<path d="M109.573 4.99996C109.714 5.14929 109.869 5.27464 110.008 5.42664C114.17 9.97864 117.114 15.44 118.836 21.808C120.907 29.4586 115.391 37.0997 107.495 37.7961C101.518 38.3242 95.8677 34.6705 94.1359 28.9253C93.5333 26.928 92.7146 25.204 91.6797 23.7546C89.2015 20.2866 85.6494 18.552 81.0281 18.552C76.4046 18.552 72.8562 19.9573 70.3781 22.764C67.9021 25.5733 66.6641 29.6986 66.6641 35.1481C66.6641 40.5986 68.3109 45.8398 71.6155 50.8773C74.9187 55.9148 81.2761 63.1362 90.6879 72.5492C103.568 85.4278 112.362 95.792 117.068 103.633C121.773 111.478 124.126 120.104 124.126 129.517C124.126 137.775 122.35 145.12 118.802 151.56C117.134 154.584 115.136 157.287 112.832 159.692C143.397 147.606 165.029 117.815 165.029 82.9508C165.029 46.8612 141.849 16.204 109.573 4.99996Z" fill="white"/>
</mask>
<g mask="url(#mask1_493_111)">
<path d="M111 3.5C111.141 3.64933 109.869 5.27464 110.008 5.42664C114.17 9.97864 117.114 15.44 118.836 21.808C120.907 29.4586 115.391 37.0997 107.495 37.7961C101.518 38.3242 95.8677 34.6705 94.1359 28.9253C93.5333 26.928 92.7146 25.204 91.6797 23.7546C89.2015 20.2866 85.6494 18.552 81.0281 18.552C76.4046 18.552 72.8562 19.9573 70.3781 22.764C67.9021 25.5733 66.6641 29.6986 66.6641 35.1481C66.6641 40.5986 68.3109 45.8398 71.6155 50.8773C74.9187 55.9148 81.2761 63.1362 90.6879 72.5492C103.568 85.4278 112.362 95.792 117.068 103.633C121.773 111.478 124.126 120.104 124.126 129.517C124.126 137.775 122.35 145.12 118.802 151.56C117.134 154.584 115.304 156.095 113 158.5C143.565 146.415 165.029 117.815 165.029 82.9508C165.029 46.8612 143.276 14.704 111 3.5Z" fill="url(#paint1_linear_493_111)"/>
</g>
<defs>
<linearGradient id="paint0_linear_493_111" x1="98.2383" y1="135.279" x2="-10.149" y2="26.8913" gradientUnits="userSpaceOnUse">
<stop stop-color="#FA987F"/>
<stop offset="1" stop-color="#FF3805"/>
</linearGradient>
<linearGradient id="paint1_linear_493_111" x1="64.581" y1="29.8933" x2="155.867" y2="121.179" gradientUnits="userSpaceOnUse">
<stop stop-color="#A261FB"/>
<stop offset="1" stop-color="#6800F8"/>
</linearGradient>
</defs>
</svg>
