<svg width="300" height="300" viewBox="0 0 300 300" fill="none" xmlns="http://www.w3.org/2000/svg">
<g clip-path="url(#clip0_240_30)">
<rect width="300" height="300" fill="url(#paint0_linear_240_30)"/>
<path d="M186.306 43.0846C177.205 32.7699 165.07 24.4271 149.901 18.0563C134.732 11.6855 117.44 8.50005 98.0243 8.50005C69.5073 8.50005 48.7263 13.9608 35.6812 24.8822C22.6362 35.5002 16.1137 50.0621 16.1137 68.5679C16.1137 78.2758 17.7822 86.3152 21.1193 92.686C24.7598 98.7535 30.2205 104.062 37.5015 108.613C44.7824 113.164 54.0353 117.108 65.2601 120.445C76.7882 123.782 90.2883 127.119 105.76 130.456C123.053 134.096 138.525 138.192 152.176 142.743C166.132 147.293 177.963 153.057 187.671 160.035C197.379 166.709 204.812 174.9 209.969 184.608C215.126 194.316 217.705 206.451 217.705 221.013C217.705 235.878 214.823 248.771 209.059 259.693C203.295 270.614 195.255 279.715 184.941 286.996C174.626 294.277 162.339 299.738 148.081 303.378C133.822 306.715 118.199 308.384 101.21 308.384C51.1532 308.384 7.92262 292.76 -28.4821 261.513L-12.555 235.575C-6.79095 241.642 0.0349342 247.406 7.92262 252.867C16.1137 258.328 25.0632 263.182 34.7711 267.429C44.7824 271.373 55.4005 274.558 66.6253 276.985C77.85 279.109 89.6816 280.17 102.12 280.17C127.907 280.17 147.929 275.62 162.188 266.519C176.75 257.114 184.03 243.007 184.03 224.198C184.03 214.187 181.907 205.844 177.66 199.17C173.716 192.192 167.648 186.276 159.457 181.423C151.266 176.265 141.103 171.866 128.968 168.226C116.833 164.585 102.727 160.945 86.6479 157.304C69.659 153.361 54.7937 149.265 42.0521 145.018C29.3104 140.771 18.5407 135.462 9.74286 129.091C0.945055 122.72 -5.72915 115.136 -10.2797 106.338C-14.527 97.2366 -16.6506 86.1635 -16.6506 73.1185C-16.6506 58.2532 -13.9202 45.0565 -8.4595 33.5283C-2.69542 21.6968 5.34396 11.9888 15.6586 4.40451C25.9733 -3.48317 38.1082 -9.39893 52.0634 -13.3428C66.0185 -17.59 81.4905 -19.7136 98.4794 -19.7136C120.019 -19.7136 139.131 -16.3765 155.817 -9.7023C172.806 -3.33148 188.126 5.7697 201.778 17.6012L186.306 43.0846Z" fill="white"/>
</g>
<defs>
<linearGradient id="paint0_linear_240_30" x1="20.9832" y1="-12.8108" x2="284.723" y2="312.656" gradientUnits="userSpaceOnUse">
<stop stop-color="#B37CFF"/>
<stop offset="1" stop-color="#6800F8"/>
</linearGradient>
<clipPath id="clip0_240_30">
<rect width="300" height="300" fill="white"/>
</clipPath>
</defs>
</svg>
