<svg width="157" height="61" viewBox="0 0 157 61" fill="none" xmlns="http://www.w3.org/2000/svg">
<path d="M106.777 60.311C105.683 60.311 104.67 60.0882 103.738 59.6426C102.806 59.1969 102.006 58.5993 101.338 57.8498C100.669 57.1003 100.142 56.2292 99.7575 55.2367C99.3928 54.2441 99.2105 53.2008 99.2105 52.1069C99.2105 50.9928 99.3827 49.9394 99.7271 48.9468C100.092 47.934 100.588 47.0528 101.216 46.3033C101.864 45.5538 102.624 44.9663 103.495 44.5409C104.386 44.0953 105.359 43.8725 106.412 43.8725C107.688 43.8725 108.822 44.2067 109.815 44.8752C110.828 45.5437 111.628 46.3539 112.216 47.306V37.8257H114.889V56.7255C114.889 57.3535 115.173 57.6776 115.74 57.6979V60.0072C115.457 60.0477 115.224 60.0781 115.041 60.0983C114.879 60.1186 114.717 60.1287 114.555 60.1287C114.029 60.1287 113.563 59.9565 113.157 59.6122C112.773 59.2475 112.58 58.8323 112.58 58.3664V57.0294C111.952 58.0625 111.112 58.8728 110.058 59.4602C109.025 60.0274 107.931 60.311 106.777 60.311ZM107.415 58.0017C107.901 58.0017 108.397 57.9106 108.904 57.7283C109.43 57.546 109.916 57.2927 110.362 56.9686C110.828 56.6445 111.223 56.2698 111.547 55.8444C111.891 55.3987 112.114 54.9328 112.216 54.4466V49.8888C112.033 49.3824 111.76 48.9063 111.395 48.4607C111.031 47.9948 110.615 47.5998 110.149 47.2756C109.704 46.9313 109.217 46.6679 108.691 46.4856C108.184 46.283 107.678 46.1818 107.172 46.1818C106.382 46.1818 105.662 46.3539 105.014 46.6983C104.386 47.0224 103.839 47.4681 103.373 48.0353C102.928 48.5822 102.583 49.2203 102.34 49.9496C102.097 50.6586 101.976 51.3878 101.976 52.1373C101.976 52.9273 102.117 53.687 102.401 54.4162C102.685 55.1252 103.069 55.7431 103.556 56.2698C104.042 56.7964 104.609 57.2218 105.257 57.546C105.926 57.8498 106.645 58.0017 107.415 58.0017Z" fill="white"/>
<path d="M129.411 60.311C128.216 60.311 127.122 60.0983 126.129 59.6729C125.137 59.2273 124.286 58.6297 123.577 57.8802C122.868 57.1307 122.311 56.2596 121.906 55.267C121.521 54.2542 121.328 53.1907 121.328 52.0766C121.328 50.9624 121.521 49.9091 121.906 48.9165C122.311 47.9239 122.868 47.0528 123.577 46.3033C124.306 45.5538 125.167 44.9663 126.16 44.5409C127.152 44.0953 128.246 43.8725 129.441 43.8725C130.636 43.8725 131.72 44.0953 132.693 44.5409C133.685 44.9866 134.526 45.5842 135.215 46.3337C135.903 47.0629 136.43 47.9239 136.795 48.9165C137.179 49.8888 137.372 50.9016 137.372 51.955C137.372 52.1778 137.362 52.3804 137.342 52.5627C137.342 52.745 137.331 52.8868 137.311 52.9881H124.154C124.215 53.7781 124.397 54.4973 124.701 55.1455C125.005 55.7937 125.4 56.3508 125.886 56.8167C126.372 57.2826 126.919 57.6472 127.527 57.9106C128.155 58.1739 128.813 58.3056 129.502 58.3056C129.988 58.3056 130.464 58.2448 130.93 58.1233C131.396 57.9815 131.832 57.7992 132.237 57.5763C132.642 57.3535 132.996 57.08 133.3 56.7559C133.624 56.4318 133.867 56.0672 134.03 55.662L136.339 56.3001C136.075 56.8876 135.711 57.4244 135.245 57.9106C134.799 58.3967 134.273 58.8221 133.665 59.1868C133.077 59.5311 132.419 59.8046 131.69 60.0072C130.961 60.2097 130.201 60.311 129.411 60.311ZM134.85 51.0131C134.789 50.2635 134.597 49.5748 134.273 48.9468C133.969 48.2986 133.574 47.7517 133.088 47.306C132.622 46.8604 132.075 46.516 131.447 46.2729C130.819 46.0096 130.15 45.8779 129.441 45.8779C128.732 45.8779 128.064 46.0096 127.436 46.2729C126.808 46.516 126.251 46.8705 125.765 47.3364C125.299 47.7821 124.914 48.3189 124.61 48.9468C124.326 49.5748 124.154 50.2635 124.093 51.0131H134.85Z" fill="white"/>
<path d="M147.556 60.0072L141.296 44.1459H144.061L149.075 57.6675L154.119 44.1459H156.671L150.412 60.0072H147.556Z" fill="white"/>
<path d="M25.7151 8.44676C24.6516 7.24147 23.2336 6.2666 21.4611 5.52215C19.6886 4.77771 17.668 4.40548 15.3992 4.40548C12.0669 4.40548 9.63858 5.04358 8.11424 6.31977C6.5899 7.56052 5.82773 9.26211 5.82773 11.4245C5.82773 12.5589 6.02271 13.4984 6.41265 14.2428C6.83805 14.9518 7.47615 15.5722 8.32694 16.1039C9.17774 16.6357 10.259 17.0965 11.5706 17.4865C12.9177 17.8764 14.4952 18.2664 16.3031 18.6563C18.3238 19.0817 20.1317 19.5603 21.727 20.092C23.3577 20.6238 24.7402 21.2973 25.8746 22.1127C27.009 22.8926 27.8775 23.8497 28.4802 24.9841C29.0828 26.1185 29.3841 27.5365 29.3841 29.2381C29.3841 30.9751 29.0473 32.4817 28.3738 33.7579C27.7003 35.0341 26.7608 36.0976 25.5555 36.9484C24.3502 37.7992 22.9145 38.4373 21.2484 38.8627C19.5823 39.2526 17.7566 39.4476 15.7714 39.4476C9.92218 39.4476 4.87059 37.6219 0.616611 33.9706L2.47773 30.9397C3.15127 31.6487 3.94889 32.3222 4.87059 32.9603C5.82773 33.5984 6.8735 34.1656 8.00789 34.6619C9.17774 35.1227 10.4185 35.495 11.7301 35.7786C13.0418 36.0267 14.4243 36.1508 15.8777 36.1508C18.891 36.1508 21.2307 35.619 22.8968 34.5555C24.5984 33.4566 25.4492 31.8082 25.4492 29.6103C25.4492 28.4404 25.201 27.4656 24.7047 26.6857C24.2439 25.8703 23.5349 25.1791 22.5778 24.6119C21.6206 24.0092 20.433 23.4952 19.0151 23.0698C17.5971 22.6444 15.9486 22.219 14.0698 21.7936C12.0846 21.3328 10.3476 20.8542 8.85869 20.3579C7.3698 19.8616 6.11133 19.2412 5.08329 18.4968C4.05524 17.7523 3.27535 16.8661 2.7436 15.838C2.2473 14.7746 1.99915 13.4806 1.99915 11.9563C1.99915 10.2193 2.3182 8.67719 2.9563 7.33009C3.62984 5.94755 4.56926 4.81316 5.77456 3.92691C6.97985 3.00522 8.39784 2.31395 10.0285 1.8531C11.6592 1.3568 13.4672 1.10865 15.4524 1.10865C17.9693 1.10865 20.2026 1.4986 22.1524 2.2785C24.1376 3.02294 25.9278 4.08644 27.523 5.46898L25.7151 8.44676Z" fill="white"/>
<path d="M42.1685 39.6603C40.8568 39.6603 39.6338 39.4476 38.4994 39.0222C37.4005 38.5614 36.4256 37.941 35.5748 37.1611C34.7595 36.3812 34.1214 35.4772 33.6605 34.4492C33.1997 33.3857 32.9693 32.2513 32.9693 31.046C32.9693 29.8407 33.2529 28.724 33.8201 27.696C34.3872 26.668 35.1849 25.7817 36.2129 25.0373C37.241 24.2928 38.464 23.7256 39.882 23.3357C41.3 22.9103 42.8598 22.6976 44.5613 22.6976C45.9793 22.6976 47.415 22.8217 48.8685 23.0698C50.3219 23.318 51.6158 23.6724 52.7502 24.1333V21.6341C52.7502 19.188 52.059 17.256 50.6764 15.838C49.2939 14.3846 47.3796 13.6579 44.9336 13.6579C43.5156 13.6579 42.0621 13.9415 40.5732 14.5087C39.0843 15.0759 37.5777 15.8912 36.0534 16.9547L34.7772 14.5619C38.3576 12.1513 41.8317 10.946 45.1994 10.946C48.6735 10.946 51.4032 11.9208 53.3883 13.8706C55.3735 15.8203 56.3661 18.5145 56.3661 21.9531V34.4492C56.3661 35.4418 56.8092 35.9381 57.6955 35.9381V39.1286C57.0928 39.2349 56.632 39.2881 56.3129 39.2881C55.3912 39.2881 54.6645 39.0577 54.1328 38.5968C53.6365 38.136 53.3706 37.4979 53.3352 36.6825L53.2288 34.5024C51.9526 36.1685 50.3397 37.4447 48.3899 38.3309C46.4756 39.2172 44.4018 39.6603 42.1685 39.6603ZM43.0193 36.8952C44.8981 36.8952 46.6174 36.5407 48.1772 35.8317C49.7725 35.1227 50.9778 34.1833 51.7931 33.0135C52.1121 32.6944 52.3426 32.3577 52.4844 32.0032C52.6616 31.6132 52.7502 31.2587 52.7502 30.9397V26.4198C51.5449 25.959 50.2865 25.6045 48.9748 25.3563C47.6986 25.1082 46.387 24.9841 45.0399 24.9841C42.4875 24.9841 40.4137 25.5158 38.8185 26.5793C37.2232 27.6428 36.4256 29.0431 36.4256 30.7801C36.4256 31.6309 36.5851 32.4285 36.9042 33.173C37.2587 33.9174 37.7195 34.5733 38.2867 35.1405C38.8894 35.6722 39.5984 36.0976 40.4137 36.4167C41.2291 36.7357 42.0976 36.8952 43.0193 36.8952Z" fill="white"/>
<path d="M64.3382 0.311035H67.9541V32.8539C67.9541 33.882 68.2376 34.6973 68.8048 35.3C69.372 35.8672 70.1697 36.1508 71.1977 36.1508C71.5877 36.1508 72.0485 36.0976 72.5802 35.9913C73.112 35.8849 73.6083 35.7431 74.0691 35.5659L74.7072 38.4905C74.0337 38.7741 73.2006 39.0045 72.208 39.1817C71.2509 39.359 70.4178 39.4476 69.7088 39.4476C68.0427 39.4476 66.731 38.9868 65.7739 38.0651C64.8167 37.1079 64.3382 35.7786 64.3382 34.077V0.311035Z" fill="white"/>
<path d="M79.4111 39.1286V1.37453H95.0445C96.6752 1.37453 98.1641 1.72903 99.5111 2.43802C100.894 3.11157 102.081 4.01554 103.074 5.14993C104.066 6.24887 104.846 7.50734 105.414 8.92533C105.981 10.3433 106.264 11.779 106.264 13.2325C106.264 14.7923 105.998 16.2989 105.467 17.7523C104.935 19.1703 104.191 20.4288 103.233 21.5277C102.276 22.6267 101.124 23.5129 99.777 24.1865C98.4654 24.86 96.9942 25.1968 95.3635 25.1968H83.1333V39.1286H79.4111ZM83.1333 21.9H95.204C96.3029 21.9 97.2955 21.6695 98.1818 21.2087C99.1035 20.7124 99.8834 20.0743 100.521 19.2944C101.16 18.4791 101.656 17.5574 102.01 16.5293C102.365 15.4658 102.542 14.3669 102.542 13.2325C102.542 12.0626 102.329 10.9637 101.904 9.93565C101.514 8.87216 100.965 7.95046 100.256 7.17057C99.5821 6.39067 98.7667 5.78803 97.8096 5.36263C96.8879 4.90178 95.913 4.67136 94.8849 4.67136H83.1333V21.9Z" fill="white"/>
<path d="M125.57 14.615C123.124 14.6859 120.997 15.3595 119.19 16.6357C117.382 17.9119 116.105 19.6666 115.361 21.9V39.1286H111.745V11.4245H115.148V18.0714C116.176 15.9444 117.559 14.2783 119.296 13.073C121.033 11.8677 122.894 11.265 124.879 11.265C125.163 11.265 125.393 11.2827 125.57 11.3182V14.615Z" fill="white"/>
<path d="M140.79 39.6603C138.769 39.6603 136.926 39.2881 135.26 38.5436C133.594 37.7637 132.14 36.718 130.9 35.4063C129.694 34.0947 128.755 32.5703 128.081 30.8333C127.408 29.0963 127.071 27.2706 127.071 25.3563C127.071 23.4066 127.408 21.5632 128.081 19.8261C128.79 18.0891 129.747 16.5648 130.953 15.2531C132.194 13.9415 133.647 12.8957 135.313 12.1158C136.979 11.3359 138.805 10.946 140.79 10.946C142.775 10.946 144.601 11.3359 146.267 12.1158C147.969 12.8957 149.422 13.9415 150.627 15.2531C151.868 16.5648 152.825 18.0891 153.499 19.8261C154.208 21.5632 154.562 23.4066 154.562 25.3563C154.562 27.2706 154.226 29.0963 153.552 30.8333C152.878 32.5703 151.921 34.0947 150.681 35.4063C149.475 36.718 148.022 37.7637 146.32 38.5436C144.654 39.2881 142.811 39.6603 140.79 39.6603ZM130.74 25.4095C130.74 26.9693 131.006 28.4227 131.538 29.7698C132.069 31.0815 132.778 32.2513 133.665 33.2793C134.586 34.2719 135.65 35.0518 136.855 35.619C138.096 36.1862 139.408 36.4698 140.79 36.4698C142.173 36.4698 143.467 36.1862 144.672 35.619C145.913 35.0164 146.994 34.2188 147.915 33.2262C148.837 32.1981 149.564 31.0106 150.096 29.6635C150.627 28.3164 150.893 26.8629 150.893 25.3031C150.893 23.7788 150.627 22.3431 150.096 20.996C149.564 19.6134 148.837 18.4259 147.915 17.4333C146.994 16.4052 145.913 15.6076 144.672 15.0404C143.467 14.4378 142.173 14.1365 140.79 14.1365C139.408 14.1365 138.114 14.4378 136.908 15.0404C135.703 15.6076 134.64 16.4052 133.718 17.4333C132.796 18.4613 132.069 19.6666 131.538 21.0492C131.006 22.3963 130.74 23.8497 130.74 25.4095Z" fill="white"/>
<path d="M111.741 39.1286H115.366V57.7372L113.646 58.1774L112.762 56.5027L111.741 56.4069V39.1286Z" fill="white"/>
</svg>
