<svg width="124" height="48" viewBox="0 0 124 48" fill="none" xmlns="http://www.w3.org/2000/svg">
<path d="M84.4025 47.4244C83.5385 47.4244 82.7385 47.2484 82.0025 46.8964C81.2665 46.5444 80.6345 46.0724 80.1065 45.4804C79.5785 44.8884 79.1625 44.2004 78.8585 43.4164C78.5705 42.6324 78.4265 41.8084 78.4265 40.9444C78.4265 40.0644 78.5625 39.2324 78.8345 38.4484C79.1225 37.6484 79.5145 36.9524 80.0105 36.3604C80.5225 35.7684 81.1225 35.3044 81.8105 34.9684C82.5145 34.6164 83.2825 34.4404 84.1145 34.4404C85.1225 34.4404 86.0185 34.7044 86.8025 35.2324C87.6025 35.7604 88.2345 36.4004 88.6985 37.1524V29.6644H90.8105V44.5924C90.8105 45.0884 91.0345 45.3444 91.4825 45.3604V47.1844C91.2585 47.2164 91.0745 47.2404 90.9305 47.2564C90.8025 47.2724 90.6745 47.2804 90.5465 47.2804C90.1305 47.2804 89.7625 47.1444 89.4425 46.8724C89.1385 46.5844 88.9865 46.2564 88.9865 45.8884V44.8324C88.4905 45.6484 87.8265 46.2884 86.9945 46.7524C86.1785 47.2004 85.3145 47.4244 84.4025 47.4244ZM84.9065 45.6004C85.2905 45.6004 85.6825 45.5284 86.0825 45.3844C86.4985 45.2404 86.8825 45.0404 87.2345 44.7844C87.6025 44.5284 87.9145 44.2324 88.1705 43.8964C88.4425 43.5444 88.6185 43.1764 88.6985 42.7924V39.1924C88.5545 38.7924 88.3385 38.4164 88.0505 38.0644C87.7625 37.6964 87.4345 37.3844 87.0665 37.1284C86.7145 36.8564 86.3305 36.6484 85.9145 36.5044C85.5145 36.3444 85.1145 36.2644 84.7145 36.2644C84.0905 36.2644 83.5225 36.4004 83.0105 36.6724C82.5145 36.9284 82.0825 37.2804 81.7145 37.7284C81.3625 38.1604 81.0905 38.6644 80.8985 39.2404C80.7065 39.8004 80.6105 40.3764 80.6105 40.9684C80.6105 41.5924 80.7225 42.1924 80.9465 42.7684C81.1705 43.3284 81.4745 43.8164 81.8585 44.2324C82.2425 44.6484 82.6905 44.9844 83.2025 45.2404C83.7305 45.4804 84.2985 45.6004 84.9065 45.6004Z" fill="#6800F8"/>
<path d="M102.28 47.4244C101.336 47.4244 100.472 47.2564 99.6883 46.9204C98.9043 46.5684 98.2323 46.0964 97.6723 45.5044C97.1123 44.9124 96.6723 44.2244 96.3523 43.4404C96.0483 42.6404 95.8963 41.8004 95.8963 40.9204C95.8963 40.0404 96.0483 39.2084 96.3523 38.4244C96.6723 37.6404 97.1123 36.9524 97.6723 36.3604C98.2483 35.7684 98.9283 35.3044 99.7123 34.9684C100.496 34.6164 101.36 34.4404 102.304 34.4404C103.248 34.4404 104.104 34.6164 104.872 34.9684C105.656 35.3204 106.32 35.7924 106.864 36.3844C107.408 36.9604 107.824 37.6404 108.112 38.4244C108.416 39.1924 108.568 39.9924 108.568 40.8244C108.568 41.0004 108.56 41.1604 108.544 41.3044C108.544 41.4484 108.536 41.5604 108.52 41.6404H98.1283C98.1763 42.2644 98.3203 42.8324 98.5603 43.3444C98.8003 43.8564 99.1123 44.2964 99.4963 44.6644C99.8803 45.0324 100.312 45.3204 100.792 45.5284C101.288 45.7364 101.808 45.8404 102.352 45.8404C102.736 45.8404 103.112 45.7924 103.48 45.6964C103.848 45.5844 104.192 45.4404 104.512 45.2644C104.832 45.0884 105.112 44.8724 105.352 44.6164C105.608 44.3604 105.8 44.0724 105.928 43.7524L107.752 44.2564C107.544 44.7204 107.256 45.1444 106.888 45.5284C106.536 45.9124 106.12 46.2484 105.64 46.5364C105.176 46.8084 104.656 47.0244 104.08 47.1844C103.504 47.3444 102.904 47.4244 102.28 47.4244ZM106.576 40.0804C106.528 39.4884 106.376 38.9444 106.12 38.4484C105.88 37.9364 105.568 37.5044 105.184 37.1524C104.816 36.8004 104.384 36.5284 103.888 36.3364C103.392 36.1284 102.864 36.0244 102.304 36.0244C101.744 36.0244 101.216 36.1284 100.72 36.3364C100.224 36.5284 99.7843 36.8084 99.4003 37.1764C99.0323 37.5284 98.7283 37.9524 98.4883 38.4484C98.2643 38.9444 98.1283 39.4884 98.0803 40.0804H106.576Z" fill="#6800F8"/>
<path d="M116.612 47.1844L111.668 34.6564H113.852L117.812 45.3364L121.796 34.6564H123.812L118.868 47.1844H116.612Z" fill="#6800F8"/>
<path d="M20.3762 6.45945C19.5362 5.50745 18.4162 4.73745 17.0162 4.14945C15.6162 3.56145 14.0202 3.26745 12.2282 3.26745C9.59617 3.26745 7.67817 3.77145 6.47417 4.77945C5.27017 5.75945 4.66817 7.10345 4.66817 8.81145C4.66817 9.70745 4.82217 10.4494 5.13017 11.0374C5.46617 11.5974 5.97017 12.0874 6.64217 12.5074C7.31417 12.9274 8.16817 13.2914 9.20417 13.5994C10.2682 13.9074 11.5142 14.2154 12.9422 14.5234C14.5382 14.8594 15.9662 15.2374 17.2262 15.6574C18.5142 16.0774 19.6062 16.6094 20.5022 17.2534C21.3982 17.8694 22.0842 18.6254 22.5602 19.5214C23.0362 20.4174 23.2742 21.5374 23.2742 22.8814C23.2742 24.2534 23.0082 25.4434 22.4762 26.4514C21.9442 27.4594 21.2022 28.2994 20.2502 28.9714C19.2982 29.6434 18.1642 30.1474 16.8482 30.4834C15.5322 30.7914 14.0902 30.9454 12.5222 30.9454C7.90217 30.9454 3.91217 29.5034 0.552166 26.6194L2.02217 24.2254C2.55417 24.7854 3.18417 25.3174 3.91217 25.8214C4.66817 26.3254 5.49417 26.7734 6.39017 27.1654C7.31417 27.5294 8.29417 27.8234 9.33017 28.0474C10.3662 28.2434 11.4582 28.3414 12.6062 28.3414C14.9862 28.3414 16.8342 27.9214 18.1502 27.0814C19.4942 26.2134 20.1662 24.9114 20.1662 23.1754C20.1662 22.2514 19.9702 21.4814 19.5782 20.8654C19.2142 20.2214 18.6542 19.6754 17.8982 19.2274C17.1422 18.7514 16.2042 18.3454 15.0842 18.0094C13.9642 17.6734 12.6622 17.3374 11.1782 17.0014C9.61017 16.6374 8.23817 16.2594 7.06217 15.8674C5.88617 15.4754 4.89217 14.9854 4.08017 14.3974C3.26817 13.8094 2.65217 13.1094 2.23217 12.2974C1.84017 11.4574 1.64417 10.4354 1.64417 9.23145C1.64417 7.85945 1.89617 6.64145 2.40017 5.57745C2.93217 4.48545 3.67417 3.58945 4.62617 2.88945C5.57817 2.16145 6.69817 1.61545 7.98617 1.25145C9.27417 0.859447 10.7022 0.663447 12.2702 0.663447C14.2582 0.663447 16.0222 0.971447 17.5622 1.58745C19.1302 2.17545 20.5442 3.01545 21.8042 4.10745L20.3762 6.45945Z" fill="#141414"/>
<path d="M33.3719 31.1134C32.3359 31.1134 31.3699 30.9454 30.4739 30.6094C29.6059 30.2454 28.8359 29.7554 28.1639 29.1394C27.5199 28.5234 27.0159 27.8094 26.6519 26.9974C26.2879 26.1574 26.1059 25.2614 26.1059 24.3094C26.1059 23.3574 26.3299 22.4754 26.7779 21.6634C27.2259 20.8514 27.8559 20.1514 28.6679 19.5634C29.4799 18.9754 30.4459 18.5274 31.5659 18.2194C32.6859 17.8834 33.9179 17.7154 35.2619 17.7154C36.3819 17.7154 37.5159 17.8134 38.6639 18.0094C39.8119 18.2054 40.8339 18.4854 41.7299 18.8494V16.8754C41.7299 14.9434 41.1839 13.4174 40.0919 12.2974C38.9999 11.1494 37.4879 10.5754 35.5559 10.5754C34.4359 10.5754 33.2879 10.7994 32.1119 11.2474C30.9359 11.6954 29.7459 12.3394 28.5419 13.1794L27.5339 11.2894C30.3619 9.38545 33.1059 8.43345 35.7659 8.43345C38.5099 8.43345 40.6659 9.20345 42.2339 10.7434C43.8019 12.2834 44.5859 14.4114 44.5859 17.1274V26.9974C44.5859 27.7814 44.9359 28.1734 45.6359 28.1734V30.6934C45.1599 30.7774 44.7959 30.8194 44.5439 30.8194C43.8159 30.8194 43.2419 30.6374 42.8219 30.2734C42.4299 29.9094 42.2199 29.4054 42.1919 28.7614L42.1079 27.0394C41.0999 28.3554 39.8259 29.3634 38.2859 30.0634C36.7739 30.7634 35.1359 31.1134 33.3719 31.1134ZM34.0439 28.9294C35.5279 28.9294 36.8859 28.6494 38.1179 28.0894C39.3779 27.5294 40.3299 26.7874 40.9739 25.8634C41.2259 25.6114 41.4079 25.3454 41.5199 25.0654C41.6599 24.7574 41.7299 24.4774 41.7299 24.2254V20.6554C40.7779 20.2914 39.7839 20.0114 38.7479 19.8154C37.7399 19.6194 36.7039 19.5214 35.6399 19.5214C33.6239 19.5214 31.9859 19.9414 30.7259 20.7814C29.4659 21.6214 28.8359 22.7274 28.8359 24.0994C28.8359 24.7714 28.9619 25.4014 29.2139 25.9894C29.4939 26.5774 29.8579 27.0954 30.3059 27.5434C30.7819 27.9634 31.3419 28.2994 31.9859 28.5514C32.6299 28.8034 33.3159 28.9294 34.0439 28.9294Z" fill="#141414"/>
<path d="M50.8826 0.0334473H53.7386V25.7374C53.7386 26.5494 53.9626 27.1934 54.4106 27.6694C54.8586 28.1174 55.4886 28.3414 56.3006 28.3414C56.6086 28.3414 56.9726 28.2994 57.3926 28.2154C57.8126 28.1314 58.2046 28.0194 58.5686 27.8794L59.0726 30.1894C58.5406 30.4134 57.8826 30.5954 57.0986 30.7354C56.3426 30.8754 55.6846 30.9454 55.1246 30.9454C53.8086 30.9454 52.7726 30.5814 52.0166 29.8534C51.2606 29.0974 50.8826 28.0474 50.8826 26.7034V0.0334473Z" fill="#141414"/>
<path d="M62.788 30.6934V0.873446H75.136C76.424 0.873446 77.6 1.15345 78.664 1.71345C79.756 2.24545 80.694 2.95945 81.478 3.85545C82.262 4.72345 82.878 5.71745 83.326 6.83745C83.774 7.95745 83.998 9.09145 83.998 10.2394C83.998 11.4714 83.788 12.6614 83.368 13.8094C82.948 14.9294 82.36 15.9234 81.604 16.7914C80.848 17.6594 79.938 18.3594 78.874 18.8914C77.838 19.4234 76.676 19.6894 75.388 19.6894H65.728V30.6934H62.788ZM65.728 17.0854H75.262C76.13 17.0854 76.914 16.9034 77.614 16.5394C78.342 16.1474 78.958 15.6434 79.462 15.0274C79.966 14.3834 80.358 13.6554 80.638 12.8434C80.918 12.0034 81.058 11.1354 81.058 10.2394C81.058 9.31545 80.89 8.44745 80.554 7.63545C80.246 6.79545 79.812 6.06745 79.252 5.45145C78.72 4.83545 78.076 4.35945 77.32 4.02345C76.592 3.65945 75.822 3.47745 75.01 3.47745H65.728V17.0854Z" fill="#141414"/>
<path d="M99.2469 11.3314C97.3149 11.3874 95.6349 11.9194 94.2069 12.9274C92.7789 13.9354 91.7709 15.3214 91.1829 17.0854V30.6934H88.3269V8.81145H91.0149V14.0614C91.8269 12.3814 92.9189 11.0654 94.2909 10.1134C95.6629 9.16145 97.1329 8.68545 98.7009 8.68545C98.9249 8.68545 99.1069 8.69945 99.2469 8.72745V11.3314Z" fill="#6800F8"/>
<path d="M111.268 31.1134C109.672 31.1134 108.216 30.8194 106.9 30.2314C105.584 29.6154 104.436 28.7894 103.456 27.7534C102.504 26.7174 101.762 25.5134 101.23 24.1414C100.698 22.7694 100.432 21.3274 100.432 19.8154C100.432 18.2754 100.698 16.8194 101.23 15.4474C101.79 14.0754 102.546 12.8714 103.498 11.8354C104.478 10.7994 105.626 9.97345 106.942 9.35745C108.258 8.74145 109.7 8.43345 111.268 8.43345C112.836 8.43345 114.278 8.74145 115.594 9.35745C116.938 9.97345 118.086 10.7994 119.038 11.8354C120.018 12.8714 120.774 14.0754 121.306 15.4474C121.866 16.8194 122.146 18.2754 122.146 19.8154C122.146 21.3274 121.88 22.7694 121.348 24.1414C120.816 25.5134 120.06 26.7174 119.08 27.7534C118.128 28.7894 116.98 29.6154 115.636 30.2314C114.32 30.8194 112.864 31.1134 111.268 31.1134ZM103.33 19.8574C103.33 21.0894 103.54 22.2374 103.96 23.3014C104.38 24.3374 104.94 25.2614 105.64 26.0734C106.368 26.8574 107.208 27.4734 108.16 27.9214C109.14 28.3694 110.176 28.5934 111.268 28.5934C112.36 28.5934 113.382 28.3694 114.334 27.9214C115.314 27.4454 116.168 26.8154 116.896 26.0314C117.624 25.2194 118.198 24.2814 118.618 23.2174C119.038 22.1534 119.248 21.0054 119.248 19.7734C119.248 18.5694 119.038 17.4354 118.618 16.3714C118.198 15.2794 117.624 14.3414 116.896 13.5574C116.168 12.7454 115.314 12.1154 114.334 11.6674C113.382 11.1914 112.36 10.9534 111.268 10.9534C110.176 10.9534 109.154 11.1914 108.202 11.6674C107.25 12.1154 106.41 12.7454 105.682 13.5574C104.954 14.3694 104.38 15.3214 103.96 16.4134C103.54 17.4774 103.33 18.6254 103.33 19.8574Z" fill="#141414"/>
<path d="M88.3237 30.6934H91.187V45.3915L89.8284 45.7391L89.1299 44.4164L88.3237 44.3407V30.6934Z" fill="#6800F8"/>
</svg>
